<svg id="Capa_1" enable-background="new 0 0 511.963 511.963" height="512" viewBox="0 0 511.963 511.963" width="512" xmlns="http://www.w3.org/2000/svg"><path d="m163.855 306.632-66.659 66.659c-.995.995-2.637.861-3.463-.278-2.656-3.663-5.89-7.037-9.749-9.971-18.18-13.822-44.074-12.676-60.929 2.734-20.175 18.446-20.703 49.774-1.583 68.894 8.726 8.727 19.996 13.36 31.423 13.901 5.76.273 10.296 4.793 10.567 10.554.572 12.173 5.789 24.168 15.651 33.102 18.279 16.559 46.743 16.229 64.66-.721 19.572-18.516 19.896-49.4.971-68.325-1.809-1.809-3.729-3.436-5.735-4.89-1.135-.822-1.257-2.462-.266-3.453l66.659-66.659z" fill="#fcf2d0"/><path d="m163.855 306.632-54.203 54.203c5.384 8.046 11.637 15.647 18.768 22.779 7.08 7.08 14.712 13.326 22.832 18.715l54.149-54.149z" fill="#f6e3a3"/><path d="m450.674 277.872c-55.739 55.739-209.124 162.302-293.969 77.457s21.718-238.23 77.457-293.969z" fill="#e1b89a"/><path d="m187.244 117.982c-49.764 70.661-94.443 173.444-30.539 237.347 36.854 36.854 86.64 37.59 135.738 22.068-104.638-39.594-117.871-171.612-105.199-259.415z" fill="#d2996f"/><path d="m184.565 307.088c-4.142 0-7.5-3.358-7.5-7.5v-19.794c0-4.142 3.358-7.5 7.5-7.5s7.5 3.358 7.5 7.5v19.794c0 4.142-3.357 7.5-7.5 7.5z" fill="#e1b89a"/><path d="m244.05 335.704c-4.142 0-7.5-3.358-7.5-7.5v-28.555c0-4.142 3.358-7.5 7.5-7.5s7.5 3.358 7.5 7.5v28.555c0 4.143-3.358 7.5-7.5 7.5z" fill="#d2996f"/><path d="m472.985 255.561-22.311 22.311c-42.043 42.043-110.208 42.043-152.251 0l-64.26-64.26c-42.043-42.043-42.043-110.208 0-152.251l22.311-22.311c42.043-42.043 110.208-42.043 152.251 0l64.26 64.26c42.043 42.043 42.043 110.208 0 152.251z" fill="#e8899e"/><ellipse cx="353.573" cy="158.461" fill="#fcf2d0" rx="30.126" ry="37.415" transform="matrix(.707 -.707 .707 .707 -8.489 296.428)"/><path d="m275.997 146.091c8.385 8.385 6.647 23.717-3.882 34.246s-25.861 12.267-34.246 3.882-6.646-23.717 3.882-34.246c10.53-10.529 25.862-12.267 34.246-3.882z" fill="#fff"/><path d="m341.203 80.885c8.385 8.385 23.717 6.646 34.246-3.882 10.529-10.529 12.267-25.861 3.882-34.246s-23.717-6.646-34.246 3.882c-10.528 10.529-12.266 25.861-3.882 34.246z" fill="#fff"/><path d="m478.288 98.006-50.384-50.384c-2.929-2.929-7.678-2.929-10.606 0-2.929 2.929-2.929 7.678 0 10.606l50.384 50.384c39.051 39.052 39.051 102.594 0 141.646l-22.311 22.311c-39.052 39.051-102.593 39.051-141.645 0l-64.26-64.26c-39.052-39.052-39.052-102.594 0-141.645l22.311-22.311c16.963-16.963 39.462-27.284 63.352-29.059 23.646-1.761 47.17 4.905 66.24 18.758 3.35 2.434 8.04 1.691 10.476-1.66 2.435-3.351 1.691-8.042-1.66-10.476-21.937-15.936-48.989-23.598-76.167-21.581-27.473 2.042-53.344 13.907-72.848 33.411l-22.311 22.311c-28.29 28.291-69.643 81.543-93.081 138.52-21.959 53.383-23.916 99.539-6.183 135.708l-33.615 33.616c-20.485-22.554-55.432-24.279-77.984-3.661-23.266 21.27-24.075 57.486-1.827 79.733 9.725 9.725 22.642 15.439 36.371 16.089 1.899.09 3.342 1.526 3.431 3.414.693 14.754 7.124 28.359 18.107 38.309 10.431 9.45 23.695 14.16 36.955 14.159 18.414 0 35.419-8.989 45.713-24.184 2.324-3.429 1.427-8.092-2.002-10.416s-8.092-1.427-10.416 2.003c-13.857 20.459-42.459 23.375-60.179 7.321-8.004-7.251-12.69-17.158-13.195-27.897-.453-9.63-8.064-17.236-17.705-17.693-9.992-.473-19.394-4.633-26.474-11.712-16.06-16.06-15.748-42.433 1.341-58.057 16.968-15.512 45.199-13.683 59.544 6.103 3.527 4.865 10.574 5.445 14.838 1.18l34.89-34.89c4.055 5.972 8.711 11.628 14.012 16.929 5.3 5.3 10.946 9.969 16.917 14.024l-34.879 34.879c-4.251 4.251-3.701 11.299 1.169 14.83 7.79 5.646 13.433 13.991 15.606 23.642.785 3.486 3.88 5.854 7.31 5.854 4.821 0 8.377-4.47 7.324-9.149-2.551-11.331-8.55-21.248-16.715-28.658l33.595-33.595c42.339 20.764 92.202 11.702 135.729-6.203 56.976-23.438 110.229-64.79 138.52-93.081l22.311-22.311c44.901-44.899 44.901-117.956.001-162.857zm-316.28 252.02c-61.126-61.128-15.76-162.607 34.859-232.625-6.34 36.254 4.564 74.086 31.992 101.514l64.26 64.26c27.359 27.36 65.47 38.295 101.65 31.893-69.825 50.517-171.512 96.207-232.761 34.958zm177.838-286.406c2.929-2.929 2.928-7.678-.001-10.606l-7.793-7.793c-2.93-2.929-7.677-2.928-10.607 0-2.929 2.929-2.928 7.678 0 10.606l7.794 7.793c2.929 2.929 7.677 2.929 10.607 0zm-99.513 62.713c-2.929 2.929-2.929 7.678 0 10.606l7.793 7.793c2.929 2.929 7.678 2.929 10.606 0 2.929-2.929 2.929-7.678 0-10.606l-7.793-7.793c-2.928-2.928-7.677-2.928-10.606 0zm43.242-24.482c-4.122-.284-7.713 2.836-7.996 6.969-.284 4.132 2.836 7.713 6.969 7.996 7.946.545 15.742-2.362 21.38-8 5.631-5.63 8.547-13.423 8-21.38-.284-4.132-3.863-7.245-7.996-6.969-4.132.284-7.252 3.864-6.969 7.996.249 3.63-1.078 7.183-3.642 9.747-2.563 2.564-6.111 3.897-9.746 3.641zm43.393 83.215c16.589 16.59 42.978 20.541 58.365 5.154 14.67-14.67 12.357-40.853-5.154-58.365-17.513-17.513-43.694-19.824-58.365-5.154-14.67 14.67-12.358 40.853 5.154 58.365zm5.452-47.758c9.74-9.74 26.796-5.202 37.152 5.154 11.664 11.664 13.976 28.33 5.154 37.152-8.821 8.822-25.487 6.51-37.152-5.154-11.663-11.664-13.975-28.331-5.154-37.152z"/></svg>